HIERARCHY
ROOT Hips
{
	OFFSET 0.000000 0.000000 0.000000
	CHANNELS 6 Xposition Yposition Zposition Xrotation Yrotation Zrotation
	JOINT LeftUpLeg_virtual
	{
		OFFSET 0.000000 0.000000 0.000000
		CHANNELS 3 Xrotation Yrotation Zrotation
		JOINT LeftUpLeg
		{
			OFFSET 11.394100 -6.187798 -0.413800
			CHANNELS 3 Xrotation Yrotation Zrotation
			JOINT LeftLeg
			{
				OFFSET 0.430247 -32.302673 3.732800
				CHANNELS 3 Xrotation Yrotation Zrotation
				JOINT LeftFoot
				{
					OFFSET -0.430247 -48.264931 -6.423300
					CHANNELS 3 Xrotation Yrotation Zrotation
					JOINT LeftToeBase
					{
						OFFSET 4.230900 -16.068199 23.438400
						CHANNELS 3 Xrotation Yrotation Zrotation
						JOINT LeftToe_End
						{
							OFFSET 4.510700 0.695400 19.974600
							CHANNELS 3 Xrotation Yrotation Zrotation
							End Site
							{
								OFFSET 0 0 0
							}
						}
					}
				}
			}
		}
	}
	JOINT RightUpLeg_virtual
	{
		OFFSET 0.000000 0.000000 0.000000
		CHANNELS 3 Xrotation Yrotation Zrotation
		JOINT RightUpLeg
		{
			OFFSET -11.333700 -6.187798 -0.413800
			CHANNELS 3 Xrotation Yrotation Zrotation
			JOINT RightLeg
			{
				OFFSET -0.430392 -32.302628 3.733000
				CHANNELS 3 Xrotation Yrotation Zrotation
				JOINT RightFoot
				{
					OFFSET 0.430392 -48.264973 -6.423500
					CHANNELS 3 Xrotation Yrotation Zrotation
					JOINT RightToeBase
					{
						OFFSET -4.230900 -16.068199 23.438400
						CHANNELS 3 Xrotation Yrotation Zrotation
						JOINT RightToe_End
						{
							OFFSET -4.510700 0.695400 19.974600
							CHANNELS 3 Xrotation Yrotation Zrotation
							End Site
							{
								OFFSET 0 0 0
							}
						}
					}
				}
			}
		}
	}
	JOINT Spine_virtual
	{
		OFFSET 0.000000 0.000000 0.000000
		CHANNELS 3 Xrotation Yrotation Zrotation
		JOINT Spine
		{
			OFFSET -0.002400 12.777504 0.315300
			CHANNELS 3 Xrotation Yrotation Zrotation
			JOINT Spine1
			{
				OFFSET -0.002067 5.816869 0.032633
				CHANNELS 3 Xrotation Yrotation Zrotation
				JOINT Spine1_split
				{
					OFFSET -0.002067 5.816869 0.032633
					CHANNELS 3 Xrotation Yrotation Zrotation
					JOINT Spine2
					{
						OFFSET -0.002067 5.816869 0.032633
						CHANNELS 3 Xrotation Yrotation Zrotation
						JOINT Neck_virtual
						{
							OFFSET 0.000000 0.000000 0.000000
							CHANNELS 3 Xrotation Yrotation Zrotation
							JOINT Neck
							{
								OFFSET -0.003700 21.199493 -0.826900
								CHANNELS 3 Xrotation Yrotation Zrotation
								JOINT Head
								{
									OFFSET 0.000000 20.442200 4.834800
									CHANNELS 3 Xrotation Yrotation Zrotation
									JOINT HeadTop_End
									{
										OFFSET 0.000000 34.668396 4.968400
										CHANNELS 3 Xrotation Yrotation Zrotation
										End Site
										{
											OFFSET 0 0 0
										}
									}
								}
							}
						}
						JOINT LeftShoulder_virtual
						{
							OFFSET 0.000000 0.000000 0.000000
							CHANNELS 3 Xrotation Yrotation Zrotation
							JOINT LeftShoulder
							{
								OFFSET 3.288150 8.794197 -1.372250
								CHANNELS 3 Xrotation Yrotation Zrotation
								JOINT LeftShoulder_split
								{
									OFFSET 3.288150 8.794197 -1.372250
									CHANNELS 3 Xrotation Yrotation Zrotation
									JOINT LeftArm
									{
										OFFSET 11.953299 -2.279007 -0.146200
										CHANNELS 3 Xrotation Yrotation Zrotation
										JOINT LeftForeArm
										{
											OFFSET 18.448900 0.000000 0.000000
											CHANNELS 3 Xrotation Yrotation Zrotation
											JOINT LeftHand
											{
												OFFSET 29.527798 0.000000 0.000000
												CHANNELS 3 Xrotation Yrotation Zrotation
												End Site
												{
													OFFSET 0 0 0
												}
											}
										}
									}
								}
							}
						}
						JOINT RightShoulder_virtual
						{
							OFFSET 0.000000 0.000000 0.000000
							CHANNELS 3 Xrotation Yrotation Zrotation
							JOINT RightShoulder
							{
								OFFSET -3.249400 8.794197 -1.372250
								CHANNELS 3 Xrotation Yrotation Zrotation
								JOINT RightShoulder_split
								{
									OFFSET -3.249400 8.794197 -1.372250
									CHANNELS 3 Xrotation Yrotation Zrotation
									JOINT RightArm
									{
										OFFSET -11.953299 -2.279007 -0.146200
										CHANNELS 3 Xrotation Yrotation Zrotation
										JOINT RightForeArm
										{
											OFFSET -18.448900 0.000000 0.000000
											CHANNELS 3 Xrotation Yrotation Zrotation
											JOINT RightHand
											{
												OFFSET -29.527802 0.000000 0.000000
												CHANNELS 3 Xrotation Yrotation Zrotation
												End Site
												{
													OFFSET 0 0 0
												}
											}
										}
									}
								}
							}
						}
					}
				}
			}
		}
	}
}
MOTION
Frames: 9
Frame Time: 0.03333333
7.564870 99.403107 13.565857 0.000000 0.000000 0.000000 -1.396059 9.205247 -3.844708 0.460066 10.919003 7.639191 18.042587 -5.755156 1.536497 -19.216158 1.751295 1.482361 -1.870782 -0.712934 -0.997301 0.000000 0.000000 0.000000 -0.746459 7.966471 -4.080289 -40.948634 -7.192040 -3.673221 30.834220 -2.739701 -2.107730 8.850097 3.219736 4.577240 3.234529 0.731322 0.721372 0.000000 0.000000 0.000000 -0.520326 8.703598 -3.965776 11.687103 -1.708489 2.218834 0.819368 -1.696931 0.870345 0.764669 -1.074931 0.490523 0.000000 0.000000 0.000000 -3.075262 -1.395548 1.027970 -0.997350 -0.151649 5.142987 -3.887049 -0.003069 -4.509831 0.000000 0.000000 0.000000 -3.270283 -1.598442 0.959627 0.851200 -1.025706 -3.248649 -1.586653 -0.662511 -0.123560 -0.805798 -10.073665 -74.612672 10.461822 -13.137230 -3.229704 0.000000 0.000000 0.000000 -3.326514 -1.862260 1.078332 2.385165 -0.151723 8.118693 -2.641147 1.124434 -1.552390 2.033581 10.497069 71.284342 11.192831 19.139862 3.203278 0.000000 0.000000 0.000000 
7.938939 100.134880 15.244612 0.000000 0.000000 0.000000 -1.221649 9.885089 -4.569602 2.503188 10.560286 7.565113 16.182856 -6.382288 1.868629 -18.974392 2.344548 0.998487 -3.000986 -0.805674 -1.209775 0.000000 0.000000 0.000000 -0.520274 8.385092 -4.849702 -41.721493 -6.832624 -2.589226 25.118934 -0.950418 -2.464660 9.409853 3.827200 5.664590 3.656668 -1.456488 -0.634592 0.000000 0.000000 0.000000 -0.229643 9.051590 -4.624829 11.730131 -1.851118 2.897801 0.550091 -1.890066 0.963689 0.722784 -0.996485 0.472776 0.000000 0.000000 0.000000 -3.217933 -1.546748 1.125708 -1.214381 -0.303069 4.980384 -4.157734 -0.066371 -5.235213 0.000000 0.000000 0.000000 -3.446653 -1.723955 0.947490 0.873837 -1.113792 -3.149984 -1.509830 -0.298439 -0.086520 -1.111835 -10.748538 -74.393027 10.703808 -13.642722 -3.623619 0.000000 0.000000 0.000000 -3.356222 -1.943728 1.158946 2.523776 -0.873396 8.097993 -2.654103 1.008005 -1.869916 2.142461 10.877588 71.154336 10.877608 18.740750 4.055129 0.000000 0.000000 0.000000 
8.241230 100.764984 17.056393 0.000000 0.000000 0.000000 -1.070178 10.618650 -5.221461 4.477605 9.658740 7.720041 14.502706 -6.783105 2.207534 -18.324218 3.346584 0.615903 -3.687682 -0.868335 -1.780970 0.000000 0.000000 0.000000 -0.416308 9.191451 -5.567939 -42.259685 -6.347420 -1.795891 20.223534 0.788265 -2.631988 10.450353 4.518874 6.187643 3.140602 -3.597478 -1.770544 0.000000 0.000000 0.000000 -0.063612 9.363529 -5.249925 12.034451 -2.122678 3.400996 0.254278 -2.170509 1.200330 0.531259 -0.736367 0.461368 0.000000 0.000000 0.000000 -3.385961 -1.803994 1.371688 -1.612674 -0.422492 4.633049 -4.557941 -0.232020 -5.884720 0.000000 0.000000 0.000000 -3.671601 -1.939086 1.090455 0.883899 -1.274653 -3.333062 -1.499602 0.225626 -0.178088 -1.115071 -11.556826 -73.976782 10.839265 -14.002944 -4.070957 0.000000 0.000000 0.000000 -3.477694 -2.135814 1.352736 2.632142 -1.522638 7.851027 -2.580859 1.011110 -2.090946 2.372902 11.445724 71.356024 10.479340 18.762711 4.646652 0.000000 0.000000 0.000000 
8.404582 101.110001 19.018589 0.000000 0.000000 0.000000 -1.020297 11.274789 -5.785706 6.568841 8.543318 8.149094 13.036136 -6.885899 2.541001 -18.061378 4.550155 0.364525 -3.586795 -0.955148 -2.396233 0.000000 0.000000 0.000000 -0.449876 10.168498 -6.154950 -42.838564 -5.904248 -1.400947 16.412492 1.998338 -2.613523 11.430549 4.901211 5.584316 3.109906 -5.376941 -2.377756 0.000000 0.000000 0.000000 -0.053273 9.508530 -5.792050 12.529426 -2.433832 3.699275 -0.052631 -2.488711 1.509158 0.411949 -0.319850 0.388209 0.000000 0.000000 0.000000 -3.538378 -2.116954 1.683559 -2.210564 -0.545423 4.227412 -5.091474 -0.493908 -6.400334 0.000000 0.000000 0.000000 -3.908189 -2.205063 1.335814 0.878432 -1.451522 -3.715494 -1.535059 0.671402 -0.237532 -0.917516 -12.462213 -73.445454 10.870353 -14.439688 -4.509925 0.000000 0.000000 0.000000 -3.645114 -2.400881 1.592048 2.685564 -2.078263 7.453423 -2.445281 1.093807 -2.111579 2.667404 12.119524 71.830251 10.005168 19.073985 5.034969 0.000000 0.000000 0.000000 
8.392673 101.005722 21.313843 0.000000 0.000000 0.000000 -1.035928 11.981746 -6.203737 8.654572 7.731024 8.853561 11.711093 -7.013397 2.756596 -18.560626 5.556460 -0.461045 -3.631749 -1.158544 -2.307372 0.000000 0.000000 0.000000 -0.505395 11.111640 -6.572986 -43.499033 -5.602429 -1.416131 14.259494 2.630594 -2.461763 12.493678 4.917823 4.066961 3.796546 -6.505120 -2.451223 0.000000 0.000000 0.000000 -0.281879 9.527094 -6.120993 13.139123 -2.706355 3.805752 -0.354297 -2.780055 1.801434 0.323133 0.302486 0.236543 0.000000 0.000000 0.000000 -3.662105 -2.419491 1.961931 -2.955914 -0.676379 3.891317 -5.679832 -0.817425 -6.755693 0.000000 0.000000 0.000000 -4.117806 -2.452531 1.586241 0.867368 -1.569793 -4.200837 -1.595139 0.728257 -0.248301 -0.651673 -13.346400 -72.908923 10.834454 -15.125939 -4.880005 0.000000 0.000000 0.000000 -3.794796 -2.658871 1.789713 2.700557 -2.534645 7.030599 -2.259960 1.241758 -1.908144 2.907759 12.732806 72.429396 9.482224 19.477797 5.296889 0.000000 0.000000 0.000000 
8.111265 100.477478 23.872358 0.000000 0.000000 0.000000 -1.029418 12.693364 -6.408676 10.641887 7.579227 9.602834 10.720382 -7.167239 2.815535 -19.568830 6.034362 -1.968375 -5.140704 -1.593126 -1.030866 0.000000 0.000000 0.000000 -0.536733 12.104843 -6.774271 -44.224027 -5.501681 -1.793339 13.931095 2.784619 -2.240591 14.312772 4.685368 2.315228 4.153529 -6.863153 -2.315524 0.000000 0.000000 0.000000 -0.619501 9.547608 -6.195984 13.753935 -2.867543 3.757635 -0.642922 -3.000370 1.997831 0.406323 0.860823 0.108375 0.000000 0.000000 0.000000 -3.766407 -2.642502 2.123181 -3.740822 -0.841051 3.699473 -6.259154 -1.167381 -6.913748 0.000000 0.000000 0.000000 -4.300744 -2.617909 1.770127 0.857788 -1.533898 -4.664212 -1.691323 0.350184 -0.146546 -0.472484 -14.033543 -72.477220 10.786631 -16.092974 -5.135869 0.000000 0.000000 0.000000 -3.899340 -2.849063 1.871769 2.691240 -2.868788 6.669243 -2.091162 1.348854 -1.502913 2.964688 13.220944 73.023697 8.937729 19.793306 5.487686 0.000000 0.000000 0.000000 
7.618111 99.673706 26.713293 0.000000 0.000000 0.000000 -1.113766 13.505462 -6.354948 12.119022 8.017921 10.381309 10.776738 -7.640970 2.732792 -19.847840 6.066632 -4.452890 -8.067956 -2.295841 1.271498 0.000000 0.000000 0.000000 -0.423792 13.055190 -6.747499 -45.090050 -5.587228 -2.360805 15.020482 2.779479 -1.978679 17.008496 4.350342 1.082626 3.751686 -6.565314 -2.172382 0.000000 0.000000 0.000000 -1.024186 9.775806 -6.003805 14.297282 -2.901104 3.621297 -0.930243 -3.118355 2.053699 0.697450 1.265037 0.061637 0.000000 0.000000 0.000000 -3.885199 -2.756383 2.136048 -4.488528 -1.041271 3.684704 -6.737260 -1.489659 -6.918592 0.000000 0.000000 0.000000 -4.467218 -2.674850 1.831163 0.868008 -1.315804 -5.020949 -1.719781 -0.324676 0.208920 -0.483285 -14.305289 -72.249393 10.733176 -17.161943 -5.283007 0.000000 0.000000 0.000000 -3.927179 -2.936104 1.813319 2.703591 -3.087194 6.444940 -1.981782 1.338937 -0.977428 2.745490 13.505382 73.496770 8.404588 20.042859 5.633336 0.000000 0.000000 0.000000 
6.914764 98.769981 29.913095 0.000000 0.000000 0.000000 -1.145231 14.404087 -6.088487 12.813364 8.851053 11.102000 12.183959 -7.867666 2.553101 -18.943823 5.923519 -6.997230 -11.001140 -3.211373 3.473182 0.000000 0.000000 0.000000 -0.241215 14.112479 -6.600230 -45.762390 -5.832312 -2.839236 17.069285 2.793748 -1.738752 20.087400 4.074908 0.389409 2.820663 -5.728508 -2.095855 0.000000 0.000000 0.000000 -1.430120 10.294549 -5.635362 14.691684 -2.834636 3.513414 -1.227633 -3.158973 1.971962 0.920028 1.332629 0.196358 0.000000 0.000000 0.000000 -4.058119 -2.778032 2.025582 -5.114999 -1.209960 3.820099 -7.025504 -1.642032 -6.821607 0.000000 0.000000 0.000000 -4.635005 -2.629680 1.765103 0.906527 -0.892932 -5.188814 -1.673055 -1.015000 0.611973 -0.643223 -14.072480 -72.288980 10.667430 -18.060941 -5.357010 0.000000 0.000000 0.000000 -3.912767 -2.933315 1.621547 2.754585 -3.211358 6.375017 -1.922558 1.244638 -0.436900 2.277779 13.692224 73.735656 7.913391 20.348911 5.755506 0.000000 0.000000 0.000000 
6.099870 97.939850 33.299095 0.000000 0.000000 0.000000 -1.273843 15.172929 -5.745452 12.704465 9.552312 11.799710 15.031074 -7.631726 2.449276 -16.362329 6.083142 -9.162327 -13.145572 -4.010825 4.504421 0.000000 0.000000 0.000000 -0.003483 15.152488 -6.427912 -45.958335 -6.270327 -2.974344 19.381131 2.634100 -1.548377 22.694675 3.676426 -0.293459 1.853113 -4.585810 -1.972600 0.000000 0.000000 0.000000 -1.825590 10.924655 -5.315647 14.924797 -2.709463 3.552970 -1.540356 -3.151530 1.790310 1.080631 1.060243 0.314542 0.000000 0.000000 0.000000 -4.298254 -2.748709 1.842714 -5.575124 -1.324163 4.014550 -7.095869 -1.573266 -6.691096 0.000000 0.000000 0.000000 -4.821571 -2.528959 1.606997 0.984535 -0.315546 -5.127931 -1.539823 -1.510856 0.890257 -0.895542 -13.373627 -72.594003 10.558793 -18.590766 -5.398818 0.000000 0.000000 0.000000 -3.900537 -2.884317 1.353507 2.845686 -3.233636 6.446596 -1.924704 1.132982 0.038462 1.661909 13.950634 73.724939 7.494025 20.776858 5.864218 0.000000 0.000000 0.000000 
